<?xml version="1.0" encoding="UTF-8"?>
<svg xmlns="http://www.w3.org/2000/svg" xmlns:xlink="http://www.w3.org/1999/xlink" width="70px" height="70px" viewBox="0 0 70 70" version="1.1">
<g id="surface1">
<path style=" stroke:none;fill-rule:nonzero;fill:rgb(3.921569%,46.27451%,95.686275%);fill-opacity:1;" d="M 36.160156 1.957031 C 37.546875 3.03125 38.101562 3.96875 39 5.882812 C 39.28125 6.480469 39.5625 7.074219 39.855469 7.683594 C 40.285156 8.617188 40.285156 8.617188 40.722656 9.570312 C 41.296875 10.789062 41.871094 12.003906 42.445312 13.222656 C 42.722656 13.820312 42.996094 14.417969 43.28125 15.03125 C 43.820312 16.167969 44.382812 17.28125 44.960938 18.367188 C 46.097656 20.496094 46.898438 22.082031 47.351562 24.757812 C 46.785156 28.210938 45.449219 30.589844 44.019531 33.359375 C 43.402344 34.589844 42.785156 35.820312 42.171875 37.054688 C 41.855469 37.679688 41.539062 38.304688 41.214844 38.949219 C 39.746094 41.890625 38.332031 44.894531 36.917969 47.898438 C 36.195312 49.429688 35.472656 50.960938 34.726562 52.472656 C 34.015625 53.945312 34.015625 53.945312 33.460938 55.609375 C 32.78125 57.382812 32.238281 58.535156 31.164062 59.792969 C 28.902344 60.597656 26.734375 60.507812 24.421875 60.382812 C 23.816406 60.386719 23.207031 60.390625 22.582031 60.398438 C 18.191406 60.289062 18.191406 60.289062 16.226562 58.136719 C 15.933594 57.480469 15.644531 56.824219 15.34375 56.144531 C 15.046875 55.597656 14.75 55.046875 14.445312 54.480469 C 14.199219 53.949219 13.949219 53.414062 13.695312 52.863281 C 13.4375 52.332031 13.179688 51.796875 12.917969 51.246094 C 12.464844 49.582031 12.464844 49.582031 12.710938 47.90625 C 13.679688 45.238281 14.800781 42.800781 15.972656 40.332031 C 16.226562 39.789062 16.480469 39.246094 16.742188 38.691406 C 17.550781 36.972656 18.363281 35.257812 19.179688 33.542969 C 19.6875 32.460938 20.199219 31.378906 20.707031 30.296875 C 23.734375 23.894531 26.792969 17.535156 29.886719 11.207031 C 31.035156 8.84375 32.167969 6.492188 33.214844 4.023438 C 34.472656 1.230469 34.472656 1.230469 36.160156 1.957031 Z M 36.160156 1.957031 "/>
<path style=" stroke:none;fill-rule:nonzero;fill:rgb(4.313726%,47.450981%,94.901961%);fill-opacity:1;" d="M 66.164062 22.605469 C 66.644531 23.332031 66.644531 23.332031 66.835938 24.863281 C 66.546875 28.046875 65.363281 29.9375 64.066406 32.402344 C 63.535156 33.445312 63.003906 34.492188 62.472656 35.539062 C 62.070312 36.320312 62.070312 36.320312 61.660156 37.121094 C 60.546875 39.320312 59.488281 41.574219 58.433594 43.839844 C 58.242188 44.25 58.050781 44.65625 57.855469 45.078125 C 56.820312 47.292969 55.792969 49.511719 54.765625 51.734375 C 54.546875 52.203125 54.328125 52.675781 54.101562 53.160156 C 53.683594 54.070312 53.261719 54.976562 52.847656 55.886719 C 51.410156 58.980469 51.410156 58.980469 50.34375 59.792969 C 49.34375 59.863281 48.34375 59.886719 47.347656 59.886719 C 46.746094 59.890625 46.148438 59.890625 45.53125 59.890625 C 44.90625 59.886719 44.277344 59.886719 43.628906 59.882812 C 42.6875 59.886719 42.6875 59.886719 41.726562 59.890625 C 40.828125 59.890625 40.828125 59.890625 39.914062 59.886719 C 39.363281 59.886719 38.8125 59.886719 38.242188 59.886719 C 36.917969 59.792969 36.917969 59.792969 35.957031 59.0625 C 35.671875 56.304688 35.984375 55.359375 37 52.96875 C 37.476562 52.03125 37.957031 51.101562 38.445312 50.175781 C 38.972656 49.140625 39.5 48.105469 40.027344 47.066406 C 40.304688 46.527344 40.582031 45.988281 40.863281 45.433594 C 42.289062 42.609375 43.648438 39.714844 45.007812 36.824219 C 45.746094 35.257812 46.484375 33.691406 47.242188 32.144531 C 47.964844 30.640625 47.964844 30.640625 48.546875 28.992188 C 49.5625 26.445312 50.269531 25.0625 52.171875 24.128906 C 53.800781 23.726562 55.40625 23.496094 57.054688 23.332031 C 57.613281 23.253906 58.167969 23.175781 58.742188 23.097656 C 61.21875 22.765625 63.679688 22.484375 66.164062 22.605469 Z M 66.164062 22.605469 "/>
<path style=" stroke:none;fill-rule:nonzero;fill:rgb(1.176471%,46.666667%,95.294118%);fill-opacity:1;" d="M 1.917969 22.605469 C 3.214844 22.632812 4.492188 22.710938 5.785156 22.832031 C 6.167969 22.867188 6.550781 22.902344 6.945312 22.9375 C 9.605469 23.195312 12.25 23.570312 14.894531 24.0625 C 15.386719 24.152344 15.386719 24.152344 15.886719 24.246094 C 18.15625 24.699219 18.15625 24.699219 18.699219 25.519531 C 18.984375 28.179688 18.714844 29.125 17.734375 31.417969 C 17.3125 32.222656 16.882812 33.023438 16.453125 33.816406 C 16.011719 34.652344 15.570312 35.488281 15.128906 36.324219 C 14.917969 36.722656 14.707031 37.121094 14.488281 37.53125 C 13.433594 39.542969 12.472656 41.644531 11.507812 43.75 C 10.089844 43.507812 9.316406 43.332031 8.289062 41.78125 C 8.046875 41.253906 7.808594 40.722656 7.5625 40.179688 C 7.164062 39.316406 7.164062 39.316406 6.753906 38.433594 C 6.347656 37.523438 6.347656 37.523438 5.933594 36.59375 C 5.523438 35.699219 5.523438 35.699219 5.101562 34.78125 C 4.589844 33.664062 4.078125 32.542969 3.574219 31.421875 C 3.097656 30.378906 2.597656 29.359375 2.078125 28.363281 C 1.257812 26.585938 1.289062 25.457031 1.4375 23.332031 C 1.597656 23.09375 1.753906 22.851562 1.917969 22.605469 Z M 1.917969 22.605469 "/>
<path style=" stroke:none;fill-rule:nonzero;fill:rgb(12.941177%,40.000001%,99.215686%);fill-opacity:1;" d="M 16.300781 24.792969 C 17.488281 25.152344 17.488281 25.152344 18.699219 25.519531 C 18.789062 27.253906 18.789062 27.253906 18.699219 29.167969 C 18.222656 29.648438 17.75 30.128906 17.261719 30.625 C 16.945312 28.699219 16.628906 26.773438 16.300781 24.792969 Z M 16.300781 24.792969 "/>
</g>
</svg>
