<?xml version="1.0" encoding="UTF-8"?>
<svg xmlns="http://www.w3.org/2000/svg" xmlns:xlink="http://www.w3.org/1999/xlink" width="70px" height="70px" viewBox="0 0 70 70" version="1.1">
<g id="surface1">
<path style=" stroke:none;fill-rule:nonzero;fill:rgb(99.607843%,99.607843%,99.607843%);fill-opacity:1;" d="M 0 0 C 23.101562 0 46.199219 0 70 0 C 70 23.101562 70 46.199219 70 70 C 46.898438 70 23.800781 70 0 70 C 0 46.898438 0 23.800781 0 0 Z M 0 0 "/>
<path style=" stroke:none;fill-rule:nonzero;fill:rgb(95.294118%,59.215689%,10.588235%);fill-opacity:1;" d="M 48.980469 35.039062 C 50.414062 36.367188 51.183594 37.550781 51.332031 39.511719 C 51.351562 39.738281 51.371094 39.964844 51.394531 40.199219 C 51.507812 42.566406 50.828125 44.5625 49.777344 46.667969 C 49.574219 46.667969 49.367188 46.667969 49.15625 46.667969 C 49.15625 46.871094 49.15625 47.078125 49.15625 47.289062 C 49.773438 47.496094 50.386719 47.699219 51.023438 47.910156 C 51.023438 48.320312 51.023438 48.734375 51.023438 49.15625 C 50.816406 49.359375 50.613281 49.566406 50.398438 49.777344 C 50.210938 49.664062 50.023438 49.554688 49.828125 49.4375 C 48.074219 48.464844 46.871094 48.121094 44.878906 48.222656 C 43.449219 48.222656 42.585938 47.566406 41.609375 46.589844 C 40.167969 44.324219 40.207031 41.820312 40.445312 39.199219 C 40.949219 37.199219 41.863281 35.996094 43.554688 34.84375 C 45.359375 34.242188 47.257812 34.222656 48.980469 35.039062 Z M 48.980469 35.039062 "/>
<path style=" stroke:none;fill-rule:nonzero;fill:rgb(5.098039%,48.235294%,58.039218%);fill-opacity:1;" d="M 7.15625 34.84375 C 8.078125 34.84375 9.003906 34.84375 9.957031 34.84375 C 10.855469 36.785156 11.578125 38.707031 12.191406 40.753906 C 12.351562 41.28125 12.511719 41.804688 12.671875 42.332031 C 12.742188 42.558594 12.808594 42.785156 12.878906 43.023438 C 13.023438 43.558594 13.023438 43.558594 13.378906 43.867188 C 13.449219 43.605469 13.519531 43.347656 13.59375 43.078125 C 14.371094 40.300781 15.246094 37.570312 16.179688 34.84375 C 17.203125 34.84375 18.230469 34.84375 19.289062 34.84375 C 19.421875 36.207031 19.554688 37.566406 19.6875 38.925781 C 19.730469 39.390625 19.777344 39.851562 19.824219 40.3125 C 20.074219 42.851562 20.28125 45.355469 20.222656 47.910156 C 19.402344 47.910156 18.578125 47.910156 17.734375 47.910156 C 17.726562 47.710938 17.71875 47.507812 17.710938 47.296875 C 17.671875 46.367188 17.636719 45.4375 17.597656 44.507812 C 17.585938 44.191406 17.574219 43.871094 17.558594 43.546875 C 17.480469 41.667969 17.34375 39.820312 17.109375 37.957031 C 17.050781 38.15625 16.988281 38.359375 16.925781 38.566406 C 16.644531 39.5 16.363281 40.429688 16.082031 41.359375 C 15.984375 41.675781 15.886719 41.992188 15.789062 42.320312 C 15.222656 44.195312 14.628906 46.058594 14 47.910156 C 13.382812 47.910156 12.769531 47.910156 12.132812 47.910156 C 12.019531 47.558594 11.902344 47.207031 11.785156 46.839844 C 11.445312 45.824219 11.09375 44.8125 10.734375 43.800781 C 10.648438 43.570312 10.566406 43.335938 10.480469 43.097656 C 10.316406 42.632812 10.144531 42.164062 9.976562 41.699219 C 9.570312 40.558594 9.214844 39.464844 9.023438 38.265625 C 8.757812 39.433594 8.652344 40.546875 8.613281 41.742188 C 8.601562 42.101562 8.585938 42.464844 8.574219 42.835938 C 8.5625 43.207031 8.546875 43.578125 8.535156 43.964844 C 8.515625 44.53125 8.515625 44.53125 8.496094 45.113281 C 8.460938 46.042969 8.429688 46.976562 8.398438 47.910156 C 7.679688 47.910156 6.960938 47.910156 6.222656 47.910156 C 6.132812 45.074219 6.289062 42.28125 6.515625 39.453125 C 6.539062 39.105469 6.566406 38.761719 6.597656 38.40625 C 6.804688 35.898438 6.804688 35.898438 7.15625 34.84375 Z M 7.15625 34.84375 "/>
<path style=" stroke:none;fill-rule:nonzero;fill:rgb(10.588235%,50.980395%,60.000002%);fill-opacity:1;" d="M 40.753906 12.445312 C 42.480469 12.457031 43.652344 12.777344 45.109375 13.6875 C 45.542969 13.785156 45.976562 13.867188 46.414062 13.941406 C 49.574219 14.585938 52.15625 16.777344 54.003906 19.351562 C 54.734375 20.515625 55.351562 21.6875 55.867188 22.960938 C 56.894531 25.648438 56.894531 25.648438 59.089844 27.378906 C 59.484375 27.523438 59.484375 27.523438 59.886719 27.675781 C 61.179688 28.214844 62.222656 29.140625 63.15625 30.179688 C 63.15625 30.382812 63.15625 30.589844 63.15625 30.800781 C 62.230469 31.003906 61.308594 31.210938 60.355469 31.421875 C 60.355469 31.628906 60.355469 31.832031 60.355469 32.042969 C 60.964844 32.574219 60.964844 32.574219 61.714844 33.113281 C 62.617188 33.777344 63.148438 34.214844 63.777344 35.15625 C 61.601562 34.40625 59.683594 33.160156 58.179688 31.421875 C 58.179688 31.21875 58.179688 31.011719 58.179688 30.800781 C 59.3125 30.300781 60.371094 30.039062 61.601562 29.867188 C 60.460938 29.027344 59.5625 28.574219 58.195312 28.195312 C 56.457031 27.535156 55.898438 26.335938 55.171875 24.730469 C 54.921875 24.164062 54.683594 23.59375 54.445312 23.023438 C 52.820312 19.480469 50.859375 17.027344 47.289062 15.246094 C 46.582031 15.171875 45.878906 15.125 45.171875 15.082031 C 44.347656 14.902344 44.128906 14.59375 43.554688 14 C 42.921875 13.757812 42.921875 13.757812 42.253906 13.628906 C 41.863281 13.546875 41.46875 13.464844 41.066406 13.378906 C 41.253906 13.710938 41.4375 14.046875 41.628906 14.390625 C 41.734375 14.578125 41.839844 14.765625 41.949219 14.957031 C 42.304688 15.570312 42.304688 15.570312 42.78125 16.140625 C 43.324219 16.914062 43.585938 17.652344 43.886719 18.550781 C 44.292969 19.820312 44.292969 19.820312 45.109375 20.84375 C 45.011719 21.46875 44.90625 22.089844 44.800781 22.710938 C 44.769531 23.339844 44.75 23.96875 44.742188 24.597656 C 44.734375 25.066406 44.734375 25.066406 44.726562 25.542969 C 44.800781 26.476562 45.027344 27.152344 45.421875 28 C 45.730469 27.074219 46.039062 26.152344 46.355469 25.199219 C 46.664062 25.199219 46.972656 25.199219 47.289062 25.199219 C 47.433594 25.476562 47.582031 25.753906 47.734375 26.039062 C 47.929688 26.410156 48.125 26.777344 48.320312 27.144531 C 48.605469 27.6875 48.605469 27.6875 48.898438 28.238281 C 49.355469 29.046875 49.820312 29.765625 50.398438 30.488281 C 49.257812 30.027344 48.714844 29.40625 47.988281 28.429688 C 47.796875 28.171875 47.605469 27.917969 47.410156 27.65625 C 47.269531 27.460938 47.125 27.265625 46.976562 27.066406 C 46.773438 27.785156 46.566406 28.503906 46.355469 29.246094 C 45.335938 29.070312 44.808594 28.832031 44.179688 28 C 43.53125 26.492188 43.5625 25.273438 43.75 23.683594 C 43.90625 21.957031 43.925781 20.691406 42.964844 19.203125 C 42.585938 18.613281 42.390625 18.050781 42.175781 17.382812 C 41.855469 16.476562 41.488281 15.890625 40.832031 15.1875 C 40.132812 14.3125 40.132812 14.3125 40.171875 13.4375 C 40.445312 12.753906 40.445312 12.753906 40.753906 12.445312 Z M 40.753906 12.445312 "/>
<path style=" stroke:none;fill-rule:nonzero;fill:rgb(99.607843%,98.823529%,97.647059%);fill-opacity:1;" d="M 46.667969 36.089844 C 47.527344 36.359375 47.847656 36.628906 48.40625 37.339844 C 49.003906 38.601562 48.980469 39.671875 48.960938 41.046875 C 48.964844 41.292969 48.96875 41.535156 48.972656 41.789062 C 48.960938 43.628906 48.636719 45.007812 47.289062 46.355469 C 46.339844 46.53125 45.441406 46.523438 44.488281 46.355469 C 43.292969 45.246094 42.957031 44.304688 42.871094 42.683594 C 42.863281 42.214844 42.859375 41.75 42.855469 41.28125 C 42.847656 41.046875 42.84375 40.816406 42.835938 40.578125 C 42.824219 39.058594 43.019531 38.019531 43.867188 36.710938 C 44.953125 35.988281 45.390625 35.984375 46.667969 36.089844 Z M 46.667969 36.089844 "/>
<path style=" stroke:none;fill-rule:nonzero;fill:rgb(95.294118%,58.823532%,9.803922%);fill-opacity:1;" d="M 37.90625 34.855469 C 38.125 34.953125 38.347656 35.054688 38.578125 35.15625 C 38.476562 35.566406 38.371094 35.976562 38.265625 36.398438 C 38.003906 36.394531 37.742188 36.386719 37.472656 36.378906 C 37.132812 36.371094 36.789062 36.367188 36.4375 36.359375 C 36.097656 36.355469 35.761719 36.347656 35.410156 36.339844 C 34.492188 36.304688 34.492188 36.304688 33.910156 37.023438 C 33.769531 38.183594 33.769531 38.183594 34.222656 39.199219 C 35.121094 39.84375 36.058594 40.351562 37.03125 40.878906 C 38.15625 41.484375 38.800781 41.871094 39.511719 42.933594 C 39.796875 44.363281 39.714844 45.386719 38.964844 46.648438 C 37.644531 47.859375 36.65625 48.003906 34.863281 48.007812 C 34.488281 48.011719 34.113281 48.019531 33.726562 48.023438 C 32.605469 47.90625 32.019531 47.628906 31.109375 46.976562 C 31.214844 46.667969 31.316406 46.363281 31.421875 46.042969 C 31.726562 46.050781 32.03125 46.058594 32.34375 46.066406 C 32.738281 46.070312 33.132812 46.078125 33.542969 46.082031 C 33.933594 46.089844 34.328125 46.097656 34.734375 46.105469 C 35.820312 46.128906 35.820312 46.128906 36.710938 45.421875 C 37.023438 44.542969 37.023438 44.542969 36.710938 43.554688 C 35.855469 42.804688 34.894531 42.257812 33.910156 41.6875 C 32.875 41.042969 32.117188 40.550781 31.421875 39.511719 C 31.167969 38.207031 31.097656 36.949219 31.789062 35.78125 C 33.472656 34.09375 35.746094 34.070312 37.90625 34.855469 Z M 37.90625 34.855469 "/>
<path style=" stroke:none;fill-rule:nonzero;fill:rgb(3.529412%,47.450981%,57.254905%);fill-opacity:1;" d="M 21.464844 38.265625 C 22.183594 38.265625 22.902344 38.265625 23.644531 38.265625 C 24.363281 40.628906 25.082031 42.988281 25.820312 45.421875 C 26.203125 43.882812 26.203125 43.882812 26.585938 42.34375 C 26.925781 40.976562 27.292969 39.621094 27.6875 38.265625 C 28.304688 38.265625 28.921875 38.265625 29.554688 38.265625 C 29.363281 42.492188 28.03125 47.449219 24.929688 50.476562 C 24.023438 51.199219 23.402344 51.460938 22.246094 51.46875 C 21.886719 51.425781 21.527344 51.378906 21.15625 51.332031 C 21.15625 50.921875 21.15625 50.511719 21.15625 50.089844 C 21.503906 50.003906 21.847656 49.921875 22.207031 49.835938 C 23.402344 49.574219 23.402344 49.574219 23.957031 48.535156 C 24.023438 46.929688 23.59375 45.441406 22.992188 43.964844 C 22.628906 43.03125 22.328125 42.082031 22.03125 41.125 C 21.921875 40.78125 21.816406 40.441406 21.707031 40.089844 C 21.464844 39.199219 21.464844 39.199219 21.464844 38.265625 Z M 21.464844 38.265625 "/>
<path style=" stroke:none;fill-rule:nonzero;fill:rgb(94.901961%,56.862748%,6.666667%);fill-opacity:1;" d="M 52.890625 34.535156 C 53.609375 34.535156 54.328125 34.535156 55.066406 34.535156 C 55.066406 38.433594 55.066406 42.335938 55.066406 46.355469 C 56.402344 46.355469 57.734375 46.355469 59.109375 46.355469 C 59.109375 46.867188 59.109375 47.382812 59.109375 47.910156 C 57.058594 47.910156 55.003906 47.910156 52.890625 47.910156 C 52.890625 43.496094 52.890625 39.082031 52.890625 34.535156 Z M 52.890625 34.535156 "/>
<path style=" stroke:none;fill-rule:nonzero;fill:rgb(15.686275%,53.333336%,61.960787%);fill-opacity:1;" d="M 40.753906 12.445312 C 42.476562 12.457031 43.65625 12.769531 45.109375 13.6875 C 46.261719 13.914062 46.261719 13.914062 47.289062 14 C 46.597656 14.613281 46.171875 14.914062 45.246094 15.050781 C 44.488281 14.933594 44.488281 14.933594 44.082031 14.503906 C 43.230469 13.6875 42.207031 13.621094 41.066406 13.378906 C 41.253906 13.710938 41.4375 14.046875 41.628906 14.390625 C 41.734375 14.578125 41.839844 14.765625 41.949219 14.957031 C 42.304688 15.570312 42.304688 15.570312 42.78125 16.140625 C 43.324219 16.914062 43.585938 17.652344 43.886719 18.550781 C 44.292969 19.820312 44.292969 19.820312 45.109375 20.84375 C 45.011719 21.46875 44.90625 22.089844 44.800781 22.710938 C 44.769531 23.339844 44.75 23.96875 44.742188 24.597656 C 44.734375 25.066406 44.734375 25.066406 44.726562 25.542969 C 44.800781 26.476562 45.027344 27.152344 45.421875 28 C 45.730469 27.074219 46.039062 26.152344 46.355469 25.199219 C 46.664062 25.199219 46.972656 25.199219 47.289062 25.199219 C 47.433594 25.476562 47.582031 25.753906 47.734375 26.039062 C 47.929688 26.410156 48.125 26.777344 48.320312 27.144531 C 48.605469 27.6875 48.605469 27.6875 48.898438 28.238281 C 49.355469 29.046875 49.820312 29.765625 50.398438 30.488281 C 49.257812 30.027344 48.714844 29.40625 47.988281 28.429688 C 47.796875 28.171875 47.605469 27.917969 47.410156 27.65625 C 47.269531 27.460938 47.125 27.265625 46.976562 27.066406 C 46.773438 27.785156 46.566406 28.503906 46.355469 29.246094 C 45.335938 29.070312 44.808594 28.832031 44.179688 28 C 43.53125 26.492188 43.5625 25.273438 43.75 23.683594 C 43.90625 21.957031 43.925781 20.691406 42.964844 19.203125 C 42.585938 18.613281 42.390625 18.050781 42.175781 17.382812 C 41.855469 16.476562 41.488281 15.890625 40.832031 15.1875 C 40.132812 14.3125 40.132812 14.3125 40.171875 13.4375 C 40.445312 12.753906 40.445312 12.753906 40.753906 12.445312 Z M 40.753906 12.445312 "/>
<path style=" stroke:none;fill-rule:nonzero;fill:rgb(96.470588%,62.352943%,15.686275%);fill-opacity:1;" d="M 52.890625 34.535156 C 53.609375 34.535156 54.328125 34.535156 55.066406 34.535156 C 55.066406 38.433594 55.066406 42.335938 55.066406 46.355469 C 54.964844 46.355469 54.863281 46.355469 54.753906 46.355469 C 54.753906 42.660156 54.753906 38.964844 54.753906 35.15625 C 54.34375 35.15625 53.933594 35.15625 53.511719 35.15625 C 53.511719 39.261719 53.511719 43.367188 53.511719 47.601562 C 55.257812 47.601562 57 47.601562 58.800781 47.601562 C 58.902344 47.1875 59.003906 46.777344 59.109375 46.355469 C 59.109375 46.867188 59.109375 47.382812 59.109375 47.910156 C 57.058594 47.910156 55.003906 47.910156 52.890625 47.910156 C 52.890625 43.496094 52.890625 39.082031 52.890625 34.535156 Z M 52.890625 34.535156 "/>
<path style=" stroke:none;fill-rule:nonzero;fill:rgb(6.666667%,49.019608%,58.823532%);fill-opacity:1;" d="M 44.800781 14.3125 C 47.382812 14.015625 48.976562 14.601562 51.023438 16.179688 C 52.519531 17.460938 53.707031 18.691406 54.445312 20.535156 C 54.035156 20.535156 53.625 20.535156 53.199219 20.535156 C 52.710938 19.996094 52.710938 19.996094 52.226562 19.269531 C 50.308594 16.667969 47.925781 15.320312 44.800781 14.621094 C 44.800781 14.519531 44.800781 14.417969 44.800781 14.3125 Z M 44.800781 14.3125 "/>
<path style=" stroke:none;fill-rule:nonzero;fill:rgb(15.294118%,53.725493%,62.352943%);fill-opacity:1;" d="M 60.976562 30.488281 C 60.667969 30.589844 60.363281 30.695312 60.042969 30.800781 C 60.15625 31.683594 60.304688 32 60.976562 32.609375 C 61.226562 32.789062 61.476562 32.96875 61.734375 33.152344 C 62.640625 33.804688 63.152344 34.214844 63.777344 35.15625 C 61.601562 34.40625 59.683594 33.160156 58.179688 31.421875 C 58.179688 31.21875 58.179688 31.011719 58.179688 30.800781 C 59.242188 30.296875 59.851562 30.070312 60.976562 30.488281 Z M 60.976562 30.488281 "/>
<path style=" stroke:none;fill-rule:nonzero;fill:rgb(15.294118%,53.333336%,61.960787%);fill-opacity:1;" d="M 40.445312 13.378906 C 40.648438 13.378906 40.855469 13.378906 41.066406 13.378906 C 41.253906 13.710938 41.4375 14.046875 41.628906 14.390625 C 42 15.039062 42.355469 15.609375 42.816406 16.195312 C 43.699219 17.441406 43.953125 18.71875 43.867188 20.222656 C 43.019531 19.488281 42.703125 18.820312 42.332031 17.773438 C 41.859375 16.519531 41.296875 15.65625 40.445312 14.621094 C 40.445312 14.210938 40.445312 13.800781 40.445312 13.378906 Z M 40.445312 13.378906 "/>
<path style=" stroke:none;fill-rule:nonzero;fill:rgb(21.960784%,56.470591%,64.705884%);fill-opacity:1;" d="M 43.867188 19.601562 C 44.503906 20.0625 44.503906 20.0625 45.109375 20.84375 C 45.101562 21.761719 45.035156 22.519531 44.878906 23.410156 C 44.824219 23.757812 44.824219 23.757812 44.769531 24.113281 C 44.683594 24.683594 44.585938 25.253906 44.488281 25.820312 C 44.386719 25.820312 44.285156 25.820312 44.179688 25.820312 C 44.160156 25.496094 44.140625 25.171875 44.121094 24.835938 C 44.09375 24.40625 44.066406 23.976562 44.042969 23.546875 C 44.03125 23.332031 44.015625 23.117188 44.003906 22.894531 C 43.945312 21.941406 43.859375 21.132812 43.554688 20.222656 C 43.660156 20.015625 43.761719 19.8125 43.867188 19.601562 Z M 43.867188 19.601562 "/>
<path style=" stroke:none;fill-rule:nonzero;fill:rgb(16.078432%,53.333336%,62.352943%);fill-opacity:1;" d="M 43.867188 23.332031 C 43.96875 23.332031 44.070312 23.332031 44.179688 23.332031 C 44.21875 23.542969 44.261719 23.753906 44.304688 23.96875 C 44.359375 24.246094 44.414062 24.523438 44.46875 24.8125 C 44.523438 25.085938 44.578125 25.359375 44.632812 25.640625 C 44.777344 26.328125 44.933594 27.007812 45.109375 27.6875 C 44.804688 27.792969 44.496094 27.894531 44.179688 28 C 43.632812 26.601562 43.46875 25.457031 43.554688 23.957031 C 43.660156 23.75 43.761719 23.542969 43.867188 23.332031 Z M 43.867188 23.332031 "/>
<path style=" stroke:none;fill-rule:nonzero;fill:rgb(1.960784%,46.27451%,56.470591%);fill-opacity:1;" d="M 44.800781 14.3125 C 45.292969 14.285156 45.785156 14.269531 46.277344 14.253906 C 46.6875 14.238281 46.6875 14.238281 47.109375 14.21875 C 48.050781 14.328125 48.457031 14.621094 49.15625 15.246094 C 48.050781 15.632812 47.375 15.46875 46.277344 15.109375 C 46 15.019531 45.722656 14.929688 45.4375 14.835938 C 45.226562 14.765625 45.015625 14.695312 44.800781 14.621094 C 44.800781 14.519531 44.800781 14.417969 44.800781 14.3125 Z M 44.800781 14.3125 "/>
<path style=" stroke:none;fill-rule:nonzero;fill:rgb(97.647059%,71.372551%,34.509805%);fill-opacity:1;" d="M 61.910156 46.355469 C 62.527344 46.355469 63.144531 46.355469 63.777344 46.355469 C 63.777344 46.867188 63.777344 47.382812 63.777344 47.910156 C 63.160156 47.910156 62.546875 47.910156 61.910156 47.910156 C 61.910156 47.398438 61.910156 46.882812 61.910156 46.355469 Z M 61.910156 46.355469 "/>
<path style=" stroke:none;fill-rule:nonzero;fill:rgb(17.647059%,54.509807%,63.137257%);fill-opacity:1;" d="M 47.601562 26.445312 C 48.277344 27.332031 48.910156 28.238281 49.523438 29.167969 C 49.691406 29.414062 49.855469 29.664062 50.023438 29.921875 C 50.148438 30.109375 50.273438 30.296875 50.398438 30.488281 C 49.355469 30.050781 48.804688 29.546875 48.125 28.640625 C 47.875 28.320312 47.875 28.320312 47.625 27.992188 C 47.511719 27.789062 47.402344 27.585938 47.289062 27.378906 C 47.390625 27.070312 47.496094 26.761719 47.601562 26.445312 Z M 47.601562 26.445312 "/>
<path style=" stroke:none;fill-rule:nonzero;fill:rgb(7.058824%,49.411765%,58.823532%);fill-opacity:1;" d="M 40.445312 13.378906 C 40.648438 13.378906 40.855469 13.378906 41.066406 13.378906 C 42.273438 15.476562 42.273438 15.476562 42.621094 16.179688 C 42.417969 16.382812 42.210938 16.589844 42 16.800781 C 41.738281 16.464844 41.480469 16.128906 41.222656 15.789062 C 41.078125 15.601562 40.933594 15.414062 40.785156 15.21875 C 40.445312 14.621094 40.445312 14.621094 40.445312 13.378906 Z M 40.445312 13.378906 "/>
<path style=" stroke:none;fill-rule:nonzero;fill:rgb(3.921569%,47.843137%,57.647061%);fill-opacity:1;" d="M 46.042969 27.066406 C 46.148438 27.066406 46.25 27.066406 46.355469 27.066406 C 46.355469 27.785156 46.355469 28.503906 46.355469 29.246094 C 45.773438 29.167969 45.773438 29.167969 45.109375 28.933594 C 44.722656 28.292969 44.722656 28.292969 44.488281 27.6875 C 45.257812 27.996094 45.257812 27.996094 46.042969 28.3125 C 46.042969 27.902344 46.042969 27.488281 46.042969 27.066406 Z M 46.042969 27.066406 "/>
<path style=" stroke:none;fill-rule:nonzero;fill:rgb(21.960784%,56.470591%,64.705884%);fill-opacity:1;" d="M 60.976562 33.289062 C 62.121094 33.382812 62.464844 33.523438 63.253906 34.398438 C 63.511719 34.773438 63.511719 34.773438 63.777344 35.15625 C 62.820312 34.78125 61.890625 34.386719 60.976562 33.910156 C 60.976562 33.707031 60.976562 33.5 60.976562 33.289062 Z M 60.976562 33.289062 "/>
</g>
</svg>
