<?xml version="1.0" encoding="UTF-8"?>
<svg xmlns="http://www.w3.org/2000/svg" xmlns:xlink="http://www.w3.org/1999/xlink" width="70px" height="70px" viewBox="0 0 70 70" version="1.1">
<g id="surface1">
<path style=" stroke:none;fill-rule:nonzero;fill:rgb(0.392157%,0.392157%,0.392157%);fill-opacity:1;" d="M 26.371094 2.019531 C 35.195312 -0.246094 44.945312 1.074219 52.726562 5.875 C 62.527344 11.738281 68.925781 22.824219 69.089844 34.234375 C 69.445312 45.761719 63.4375 57.1875 53.785156 63.457031 C 43.042969 70.683594 28.179688 70.960938 17.207031 64.089844 C 6.023438 57.417969 -0.503906 43.953125 1.171875 31.027344 C 2.523438 17.371094 13.070312 5.324219 26.371094 2.019531 Z M 26.371094 2.019531 "/>
<path style=" stroke:none;fill-rule:nonzero;fill:rgb(100%,100%,100%);fill-opacity:1;" d="M 25.019531 7.601562 C 41.691406 0.929688 62.136719 13.25 63.863281 31.125 C 66.550781 47.210938 53.199219 63.554688 36.90625 64.027344 C 21.40625 65.570312 6.429688 52.433594 5.992188 36.871094 C 4.835938 24.273438 13.136719 11.769531 25.019531 7.601562 Z M 25.019531 7.601562 "/>
<path style=" stroke:none;fill-rule:nonzero;fill:rgb(0.392157%,0.392157%,0.392157%);fill-opacity:1;" d="M 26.699219 33.273438 C 34.167969 27.167969 41.480469 20.851562 49.113281 14.929688 C 45.109375 21.082031 40.992188 27.152344 36.984375 33.308594 C 33.550781 33.324219 30.117188 33.324219 26.699219 33.273438 Z M 33.015625 36.675781 C 36.464844 36.675781 39.898438 36.675781 43.335938 36.726562 C 35.8125 42.796875 28.539062 49.164062 20.886719 55.070312 C 24.890625 48.917969 29.007812 42.832031 33.015625 36.675781 Z M 33.015625 36.675781 "/>
</g>
</svg>
